<svg height="140pt" preserveAspectRatio="xMidYMid meet" viewBox="0 0 167 140" width="167pt" xmlns="http://www.w3.org/2000/svg"><g transform="matrix(.1 0 0 -.1 0 140)"><path d="m974 1202c-7-5-3-19 10-42 18-29 27-35 56-35h35l3-56c2-44-1-58-13-63-18-7-35 29-35 75 0 19-4 28-11 24-6-4-7-19-3-38 4-18 10-68 13-112l6-80 50-13c52-13 207-13 221 1 12 11-14 181-35 230-27 63-68 93-144 106-73 13-137 14-153 3z"/><path d="m843 1173-33-4v-100c0-75 3-99 13-99 7 0 50-18 95-40l82-39v42c0 60-18 161-36 208-17 42-25 44-121 32z"/><path d="m668 1143-78-15v-74-74h95 95v90c0 103 10 97-112 73z"/><path d="m448 1107-108-20v-64-63l38 5c20 2 72 7 115 11l77 6v74c0 41-3 73-7 73-5-1-56-11-115-22z"/><path d="m262 1076c-62-13-76-31-67-84l6-37 59 3 60 4v64c0 35-1 63-2 63-2-1-27-6-56-13z"/><path d="m281 827c-6-6-11-16-11-21 0-6 4-5 9 3 17 27 41 4 41-39s-24-66-41-39c-5 9-9 10-9 2 0-6-8-13-17-15s157-35 370-74l386-71 146 33c129 28 179 43 149 44-129 4-417 21-441 26-28 5-34 12-40 43l-7 36-8-39c-14-65-46-86-74-48-16 20-18 86-4 113 14 26 45 24 64-3 9-12 16-18 16-12 0 14-38 54-51 54-24 0-59-50-59-85 0-33-2-35-32-35-18 0-94 7-168 15s-141 15-147 15c-7 0-13 6-13 13 0 6-5 28-10 49-11 39-31 53-49 35z"/><path d="m1064 774c3-9 6-17 6-20 0-6 58-34 70-34 18 0 11 26-13 48-28 26-72 30-63 6z"/><path d="m1292 765c-21-27-22-30-7-33 24-5 37 11 33 39-3 24-3 24-26-6z"/></g></svg>